<mxfile host="app.diagrams.net" modified="2024-01-15T19:55:41.049Z" agent="Mozilla/5.0 (Windows NT 10.0; Win64; x64; rv:121.0) Gecko/20100101 Firefox/121.0" etag="AFaIO4oXXkM1S5hWa7Hc" version="22.1.18" type="github">
  <diagram id="C5RBs43oDa-KdzZeNtuy" name="Page-1">
    <mxGraphModel dx="933" dy="385" grid="1" gridSize="10" guides="1" tooltips="1" connect="1" arrows="1" fold="1" page="0" pageScale="1" pageWidth="827" pageHeight="1169" math="0" shadow="0">
      <root>
        <mxCell id="WIyWlLk6GJQsqaUBKTNV-0" />
        <mxCell id="WIyWlLk6GJQsqaUBKTNV-1" parent="WIyWlLk6GJQsqaUBKTNV-0" />
        <mxCell id="WIyWlLk6GJQsqaUBKTNV-3" value="Event" style="rounded=1;whiteSpace=wrap;html=1;fontSize=12;glass=0;strokeWidth=1;shadow=0;" parent="WIyWlLk6GJQsqaUBKTNV-1" vertex="1">
          <mxGeometry x="210" y="330" width="120" height="40" as="geometry" />
        </mxCell>
        <mxCell id="qV-5JXIHJ4Vaz3HixVuS-4" style="edgeStyle=orthogonalEdgeStyle;rounded=0;orthogonalLoop=1;jettySize=auto;html=1;entryX=1;entryY=0.5;entryDx=0;entryDy=0;" edge="1" parent="WIyWlLk6GJQsqaUBKTNV-1" source="WIyWlLk6GJQsqaUBKTNV-7" target="qV-5JXIHJ4Vaz3HixVuS-23">
          <mxGeometry relative="1" as="geometry">
            <Array as="points">
              <mxPoint x="480" y="200" />
              <mxPoint x="480" y="200" />
            </Array>
          </mxGeometry>
        </mxCell>
        <mxCell id="qV-5JXIHJ4Vaz3HixVuS-7" value="1:1" style="edgeLabel;html=1;align=center;verticalAlign=middle;resizable=0;points=[];" vertex="1" connectable="0" parent="qV-5JXIHJ4Vaz3HixVuS-4">
          <mxGeometry x="0.5042" y="2" relative="1" as="geometry">
            <mxPoint as="offset" />
          </mxGeometry>
        </mxCell>
        <mxCell id="qV-5JXIHJ4Vaz3HixVuS-5" style="edgeStyle=orthogonalEdgeStyle;rounded=0;orthogonalLoop=1;jettySize=auto;html=1;entryX=0.5;entryY=1;entryDx=0;entryDy=0;" edge="1" parent="WIyWlLk6GJQsqaUBKTNV-1" source="WIyWlLk6GJQsqaUBKTNV-12" target="WIyWlLk6GJQsqaUBKTNV-3">
          <mxGeometry relative="1" as="geometry" />
        </mxCell>
        <mxCell id="qV-5JXIHJ4Vaz3HixVuS-6" value="1:N" style="edgeLabel;html=1;align=center;verticalAlign=middle;resizable=0;points=[];" vertex="1" connectable="0" parent="qV-5JXIHJ4Vaz3HixVuS-5">
          <mxGeometry x="0.3245" y="1" relative="1" as="geometry">
            <mxPoint as="offset" />
          </mxGeometry>
        </mxCell>
        <mxCell id="WIyWlLk6GJQsqaUBKTNV-12" value="&lt;div&gt;Atração&lt;/div&gt;" style="rounded=1;whiteSpace=wrap;html=1;fontSize=12;glass=0;strokeWidth=1;shadow=0;" parent="WIyWlLk6GJQsqaUBKTNV-1" vertex="1">
          <mxGeometry x="210" y="480" width="120" height="40" as="geometry" />
        </mxCell>
        <mxCell id="qV-5JXIHJ4Vaz3HixVuS-36" style="edgeStyle=orthogonalEdgeStyle;rounded=0;orthogonalLoop=1;jettySize=auto;html=1;entryX=1;entryY=0.5;entryDx=0;entryDy=0;" edge="1" parent="WIyWlLk6GJQsqaUBKTNV-1" source="qV-5JXIHJ4Vaz3HixVuS-8" target="qV-5JXIHJ4Vaz3HixVuS-21">
          <mxGeometry relative="1" as="geometry" />
        </mxCell>
        <mxCell id="qV-5JXIHJ4Vaz3HixVuS-37" style="edgeStyle=orthogonalEdgeStyle;rounded=0;orthogonalLoop=1;jettySize=auto;html=1;entryX=1;entryY=0.75;entryDx=0;entryDy=0;" edge="1" parent="WIyWlLk6GJQsqaUBKTNV-1" source="qV-5JXIHJ4Vaz3HixVuS-8" target="qV-5JXIHJ4Vaz3HixVuS-28">
          <mxGeometry relative="1" as="geometry" />
        </mxCell>
        <mxCell id="qV-5JXIHJ4Vaz3HixVuS-38" value="1:N" style="edgeLabel;html=1;align=center;verticalAlign=middle;resizable=0;points=[];" vertex="1" connectable="0" parent="qV-5JXIHJ4Vaz3HixVuS-37">
          <mxGeometry x="-0.4468" y="-1" relative="1" as="geometry">
            <mxPoint as="offset" />
          </mxGeometry>
        </mxCell>
        <mxCell id="qV-5JXIHJ4Vaz3HixVuS-42" style="edgeStyle=orthogonalEdgeStyle;rounded=0;orthogonalLoop=1;jettySize=auto;html=1;" edge="1" parent="WIyWlLk6GJQsqaUBKTNV-1" source="qV-5JXIHJ4Vaz3HixVuS-8" target="qV-5JXIHJ4Vaz3HixVuS-40">
          <mxGeometry relative="1" as="geometry">
            <Array as="points">
              <mxPoint x="580" y="400" />
              <mxPoint x="580" y="400" />
            </Array>
          </mxGeometry>
        </mxCell>
        <mxCell id="qV-5JXIHJ4Vaz3HixVuS-44" value="1:N" style="edgeLabel;html=1;align=center;verticalAlign=middle;resizable=0;points=[];" vertex="1" connectable="0" parent="qV-5JXIHJ4Vaz3HixVuS-42">
          <mxGeometry x="-0.0556" y="1" relative="1" as="geometry">
            <mxPoint x="1" as="offset" />
          </mxGeometry>
        </mxCell>
        <mxCell id="qV-5JXIHJ4Vaz3HixVuS-8" value="User" style="rounded=1;whiteSpace=wrap;html=1;" vertex="1" parent="WIyWlLk6GJQsqaUBKTNV-1">
          <mxGeometry x="520" y="510" width="120" height="40" as="geometry" />
        </mxCell>
        <mxCell id="qV-5JXIHJ4Vaz3HixVuS-24" style="edgeStyle=orthogonalEdgeStyle;rounded=0;orthogonalLoop=1;jettySize=auto;html=1;entryX=0.5;entryY=0;entryDx=0;entryDy=0;" edge="1" parent="WIyWlLk6GJQsqaUBKTNV-1" source="qV-5JXIHJ4Vaz3HixVuS-23" target="WIyWlLk6GJQsqaUBKTNV-3">
          <mxGeometry relative="1" as="geometry">
            <Array as="points">
              <mxPoint x="270" y="270" />
            </Array>
          </mxGeometry>
        </mxCell>
        <mxCell id="qV-5JXIHJ4Vaz3HixVuS-25" value="1:N" style="edgeLabel;html=1;align=center;verticalAlign=middle;resizable=0;points=[];" vertex="1" connectable="0" parent="qV-5JXIHJ4Vaz3HixVuS-24">
          <mxGeometry x="0.4627" y="2" relative="1" as="geometry">
            <mxPoint as="offset" />
          </mxGeometry>
        </mxCell>
        <mxCell id="qV-5JXIHJ4Vaz3HixVuS-23" value="API - CEP" style="rounded=1;whiteSpace=wrap;html=1;" vertex="1" parent="WIyWlLk6GJQsqaUBKTNV-1">
          <mxGeometry x="210" y="180" width="120" height="40" as="geometry" />
        </mxCell>
        <mxCell id="qV-5JXIHJ4Vaz3HixVuS-32" value="" style="group" vertex="1" connectable="0" parent="WIyWlLk6GJQsqaUBKTNV-1">
          <mxGeometry x="210" y="520" width="120" height="40" as="geometry" />
        </mxCell>
        <mxCell id="qV-5JXIHJ4Vaz3HixVuS-21" value="Creator" style="rounded=1;whiteSpace=wrap;html=1;" vertex="1" parent="qV-5JXIHJ4Vaz3HixVuS-32">
          <mxGeometry width="120" height="20" as="geometry" />
        </mxCell>
        <mxCell id="qV-5JXIHJ4Vaz3HixVuS-28" value="Owner" style="rounded=1;whiteSpace=wrap;html=1;" vertex="1" parent="qV-5JXIHJ4Vaz3HixVuS-32">
          <mxGeometry y="20" width="120" height="20" as="geometry" />
        </mxCell>
        <mxCell id="qV-5JXIHJ4Vaz3HixVuS-45" value="" style="group" vertex="1" connectable="0" parent="WIyWlLk6GJQsqaUBKTNV-1">
          <mxGeometry x="520" y="180" width="120" height="60" as="geometry" />
        </mxCell>
        <mxCell id="WIyWlLk6GJQsqaUBKTNV-7" value="Location" style="rounded=1;whiteSpace=wrap;html=1;fontSize=12;glass=0;strokeWidth=1;shadow=0;" parent="qV-5JXIHJ4Vaz3HixVuS-45" vertex="1">
          <mxGeometry width="120" height="40" as="geometry" />
        </mxCell>
        <mxCell id="qV-5JXIHJ4Vaz3HixVuS-40" value="Creator" style="rounded=1;whiteSpace=wrap;html=1;" vertex="1" parent="qV-5JXIHJ4Vaz3HixVuS-45">
          <mxGeometry y="40" width="120" height="20" as="geometry" />
        </mxCell>
      </root>
    </mxGraphModel>
  </diagram>
</mxfile>
